HIERARCHY
ROOT Root
{
  OFFSET 0.0 0.0 0.0
  CHANNELS 6 Xposition Yposition Zposition Zrotation Yrotation Xrotation
  JOINT Hips
  {
    OFFSET 0.0 100.0 0.0
    CHANNELS 6 Xposition Yposition Zposition Zrotation Yrotation Xrotation
    JOINT Spine1
    {
      OFFSET -0.013727 5.003763 -0.053727
      CHANNELS 3 Zrotation Yrotation Xrotation
      JOINT Spine2
      {
        OFFSET -0.0 7.125301 -0.029825
        CHANNELS 3 Zrotation Yrotation Xrotation
        JOINT Chest
        {
          OFFSET -1e-06 7.550063 -0.815971
          CHANNELS 3 Zrotation Yrotation Xrotation
          JOINT Neck1
          {
            OFFSET -0.181677 26.311295 -0.553348
            CHANNELS 3 Zrotation Yrotation Xrotation
            JOINT Neck2
            {
              OFFSET -3e-06 7.709397 2.302585
              CHANNELS 3 Zrotation Yrotation Xrotation
              JOINT Head
              {
                OFFSET -5e-06 6.128916 1.953709
                CHANNELS 3 Zrotation Yrotation Xrotation
                JOINT HeadEnd
                {
                  OFFSET 0.003598 16.065403 -1.835379
                  CHANNELS 3 Zrotation Yrotation Xrotation
                }
                JOINT Jaw
                {
                  OFFSET 0.002637 0.475592 3.094941
                  CHANNELS 3 Zrotation Yrotation Xrotation
                }
                JOINT LeftEye
                {
                  OFFSET 3.206381 5.380205 7.586883
                  CHANNELS 3 Zrotation Yrotation Xrotation
                }
                JOINT RightEye
                {
                  OFFSET -3.22244 5.361869 7.558234
                  CHANNELS 3 Zrotation Yrotation Xrotation
                }
              }
            }
          }
          JOINT LeftShoulder
          {
            OFFSET 1.621652 23.237164 5.113413
            CHANNELS 3 Zrotation Yrotation Xrotation
            JOINT LeftArm
            {
              OFFSET 14.919846 2e-06 -5.502326
              CHANNELS 3 Zrotation Yrotation Xrotation
              JOINT LeftForeArm
              {
                OFFSET 28.739307 0.0 -0.002588
                CHANNELS 3 Zrotation Yrotation Xrotation
                JOINT LeftHand
                {
                  OFFSET 27.093981 -1e-06 0.002609
                  CHANNELS 3 Zrotation Yrotation Xrotation
                  JOINT LeftHandThumb1
                  {
                    OFFSET 2.276482 -1.392045 3.191413
                    CHANNELS 3 Zrotation Yrotation Xrotation
                    JOINT LeftHandThumb2
                    {
                      OFFSET 4.012836 -1.828127 1.641654
                      CHANNELS 3 Zrotation Yrotation Xrotation
                      JOINT LeftHandThumb3
                      {
                        OFFSET 2.798515 0.0 -3e-06
                        CHANNELS 3 Zrotation Yrotation Xrotation
                        JOINT LeftHandThumbEnd
                        {
                          OFFSET 3.180793 -4e-06 4e-06
                          CHANNELS 3 Zrotation Yrotation Xrotation
                        }
                      }
                    }
                  }
                  JOINT LeftHandIndex1
                  {
                    OFFSET 3.247555 -0.531998 2.296169
                    CHANNELS 3 Zrotation Yrotation Xrotation
                    JOINT LeftHandIndex2
                    {
                      OFFSET 6.364578 0.01206 0.1786
                      CHANNELS 3 Zrotation Yrotation Xrotation
                      JOINT LeftHandIndex3
                      {
                        OFFSET 3.662364 0.0 0.0
                        CHANNELS 3 Zrotation Yrotation Xrotation
                        JOINT LeftHandIndex4
                        {
                          OFFSET 2.329242 4e-06 4e-06
                          CHANNELS 3 Zrotation Yrotation Xrotation
                          JOINT LeftHandIndexEnd
                          {
                            OFFSET 2.759615 -0.180537 -0.113024
                            CHANNELS 3 Zrotation Yrotation Xrotation
                          }
                        }
                      }
                    }
                  }
                  JOINT LeftHandMiddle1
                  {
                    OFFSET 3.163495 0.240981 1.000332
                    CHANNELS 3 Zrotation Yrotation Xrotation
                    JOINT LeftHandMiddle2
                    {
                      OFFSET 6.19078 -0.259278 -1.002548
                      CHANNELS 3 Zrotation Yrotation Xrotation
                      JOINT LeftHandMiddle3
                      {
                        OFFSET 4.35652 -4e-06 -1e-06
                        CHANNELS 3 Zrotation Yrotation Xrotation
                        JOINT LeftHandMiddle4
                        {
                          OFFSET 2.996877 -8e-06 0.0
                          CHANNELS 3 Zrotation Yrotation Xrotation
                          JOINT LeftHandMiddleEnd
                          {
                            OFFSET 2.304287 -0.294569 -0.031741
                            CHANNELS 3 Zrotation Yrotation Xrotation
                          }
                        }
                      }
                    }
                  }
                  JOINT LeftHandRing1
                  {
                    OFFSET 2.882643 -0.053652 -0.322543
                    CHANNELS 3 Zrotation Yrotation Xrotation
                    JOINT LeftHandRing2
                    {
                      OFFSET 5.854541 -0.486202 -1.373841
                      CHANNELS 3 Zrotation Yrotation Xrotation
                      JOINT LeftHandRing3
                      {
                        OFFSET 4.350578 0.0 3e-06
                        CHANNELS 3 Zrotation Yrotation Xrotation
                        JOINT LeftHandRing4
                        {
                          OFFSET 2.651321 7e-06 2e-06
                          CHANNELS 3 Zrotation Yrotation Xrotation
                          JOINT LeftHandRingEnd
                          {
                            OFFSET 1.936105 0.077687 -7.1e-05
                            CHANNELS 3 Zrotation Yrotation Xrotation
                          }
                        }
                      }
                    }
                  }
                  JOINT LeftHandPinky1
                  {
                    OFFSET 2.8655 -0.310005 -1.600378
                    CHANNELS 3 Zrotation Yrotation Xrotation
                    JOINT LeftHandPinky2
                    {
                      OFFSET 5.087849 -1.331141 -1.77123
                      CHANNELS 3 Zrotation Yrotation Xrotation
                      JOINT LeftHandPinky3
                      {
                        OFFSET 3.070974 4e-06 0.0
                        CHANNELS 3 Zrotation Yrotation Xrotation
                        JOINT LeftHandPinky4
                        {
                          OFFSET 1.549672 0.0 1e-06
                          CHANNELS 3 Zrotation Yrotation Xrotation
                          JOINT LeftHandPinkyEnd
                          {
                            OFFSET 1.944893 -0.157802 0.057219
                            CHANNELS 3 Zrotation Yrotation Xrotation
                          }
                        }
                      }
                    }
                  }
                }
              }
            }
          }
          JOINT RightShoulder
          {
            OFFSET -1.380118 23.180309 5.214158
            CHANNELS 3 Zrotation Yrotation Xrotation
            JOINT RightArm
            {
              OFFSET -15.037196 1.2e-05 -5.545604
              CHANNELS 3 Zrotation Yrotation Xrotation
              JOINT RightForeArm
              {
                OFFSET -28.736639 2e-06 -0.002597
                CHANNELS 3 Zrotation Yrotation Xrotation
                JOINT RightHand
                {
                  OFFSET -27.133619 -0.0 0.002613
                  CHANNELS 3 Zrotation Yrotation Xrotation
                  JOINT RightHandThumb1
                  {
                    OFFSET -2.274032 -1.383988 3.163127
                    CHANNELS 3 Zrotation Yrotation Xrotation
                    JOINT RightHandThumb2
                    {
                      OFFSET -4.011429 -1.827466 1.640914
                      CHANNELS 3 Zrotation Yrotation Xrotation
                      JOINT RightHandThumb3
                      {
                        OFFSET -2.794935 -4e-06 -3e-06
                        CHANNELS 3 Zrotation Yrotation Xrotation
                        JOINT RightHandThumbEnd
                        {
                          OFFSET -3.183852 4e-06 1e-06
                          CHANNELS 3 Zrotation Yrotation Xrotation
                        }
                      }
                    }
                  }
                  JOINT RightHandIndex1
                  {
                    OFFSET -3.253266 -0.520057 2.282866
                    CHANNELS 3 Zrotation Yrotation Xrotation
                    JOINT RightHandIndex2
                    {
                      OFFSET -6.341917 0.012471 0.178266
                      CHANNELS 3 Zrotation Yrotation Xrotation
                      JOINT RightHandIndex3
                      {
                        OFFSET -3.654871 -8e-06 -0.0
                        CHANNELS 3 Zrotation Yrotation Xrotation
                        JOINT RightHandIndex4
                        {
                          OFFSET -2.327586 0.0 1e-06
                          CHANNELS 3 Zrotation Yrotation Xrotation
                          JOINT RightHandIndexEnd
                          {
                            OFFSET -2.76179 -0.180656 -0.113078
                            CHANNELS 3 Zrotation Yrotation Xrotation
                          }
                        }
                      }
                    }
                  }
                  JOINT RightHandMiddle1
                  {
                    OFFSET -3.168106 0.246593 1.00103
                    CHANNELS 3 Zrotation Yrotation Xrotation
                    JOINT RightHandMiddle2
                    {
                      OFFSET -6.180828 -0.258836 -1.000895
                      CHANNELS 3 Zrotation Yrotation Xrotation
                      JOINT RightHandMiddle3
                      {
                        OFFSET -4.348901 0.0 -0.0
                        CHANNELS 3 Zrotation Yrotation Xrotation
                        JOINT RightHandMiddle4
                        {
                          OFFSET -3.00024 -4e-06 -2e-06
                          CHANNELS 3 Zrotation Yrotation Xrotation
                          JOINT RightHandMiddleEnd
                          {
                            OFFSET -2.30252 -0.29437 -0.031706
                            CHANNELS 3 Zrotation Yrotation Xrotation
                          }
                        }
                      }
                    }
                  }
                  JOINT RightHandRing1
                  {
                    OFFSET -2.88569 -0.067952 -0.308858
                    CHANNELS 3 Zrotation Yrotation Xrotation
                    JOINT RightHandRing2
                    {
                      OFFSET -5.854198 -0.48613 -1.373731
                      CHANNELS 3 Zrotation Yrotation Xrotation
                      JOINT RightHandRing3
                      {
                        OFFSET -4.33881 -4e-06 -0.0
                        CHANNELS 3 Zrotation Yrotation Xrotation
                        JOINT RightHandRing4
                        {
                          OFFSET -2.654903 -4e-06 4e-06
                          CHANNELS 3 Zrotation Yrotation Xrotation
                          JOINT RightHandRingEnd
                          {
                            OFFSET -1.933568 0.077527 -5.2e-05
                            CHANNELS 3 Zrotation Yrotation Xrotation
                          }
                        }
                      }
                    }
                  }
                  JOINT RightHandPinky1
                  {
                    OFFSET -2.866425 -0.342796 -1.584145
                    CHANNELS 3 Zrotation Yrotation Xrotation
                    JOINT RightHandPinky2
                    {
                      OFFSET -5.091371 -1.332055 -1.772385
                      CHANNELS 3 Zrotation Yrotation Xrotation
                      JOINT RightHandPinky3
                      {
                        OFFSET -3.062664 -4e-06 1e-06
                        CHANNELS 3 Zrotation Yrotation Xrotation
                        JOINT RightHandPinky4
                        {
                          OFFSET -1.546529 4e-06 -2e-06
                          CHANNELS 3 Zrotation Yrotation Xrotation
                          JOINT RightHandPinkyEnd
                          {
                            OFFSET -1.945119 -0.157718 0.057211
                            CHANNELS 3 Zrotation Yrotation Xrotation
                          }
                        }
                      }
                    }
                  }
                }
              }
            }
          }
        }
      }
    }
    JOINT LeftLeg
    {
      OFFSET 10.043214 -8.434526 2.595655
      CHANNELS 3 Zrotation Yrotation Xrotation
      JOINT LeftShin
      {
        OFFSET -1e-06 -43.221752 -0.802913
        CHANNELS 3 Zrotation Yrotation Xrotation
        JOINT LeftFoot
        {
          OFFSET 1e-06 -42.155094 -3.481523
          CHANNELS 3 Zrotation Yrotation Xrotation
          JOINT LeftToeBase
          {
            OFFSET 0.0 -5.059472 13.231529
            CHANNELS 3 Zrotation Yrotation Xrotation
            JOINT LeftToeEnd
            {
              OFFSET -0.009607 -1.647619 6.513017
              CHANNELS 3 Zrotation Yrotation Xrotation
            }
          }
        }
      }
    }
    JOINT RightLeg
    {
      OFFSET -10.047278 -8.29526 2.620317
      CHANNELS 3 Zrotation Yrotation Xrotation
      JOINT RightShin
      {
        OFFSET 1e-06 -43.362206 -0.805556
        CHANNELS 3 Zrotation Yrotation Xrotation
        JOINT RightFoot
        {
          OFFSET 2e-06 -42.117393 -3.478398
          CHANNELS 3 Zrotation Yrotation Xrotation
          JOINT RightToeBase
          {
            OFFSET -0.0 -5.079609 13.284196
            CHANNELS 3 Zrotation Yrotation Xrotation
            JOINT RightToeEnd
            {
              OFFSET 0.009532 -1.634378 6.460591
              CHANNELS 3 Zrotation Yrotation Xrotation
            }
          }
        }
      }
    }
  }
}
MOTION
Frames: 4
Frame Time: 0.03333333333333333
0.0 0.0 0.0 0.0 -0.0 0.0 -5.01325 99.794739 -1.971563 0.887575 -0.445667 1.052684 2.055517 -0.237408 1.88915 0.335991 -0.711297 -4.657668 1.003917 -2.082898 25.178286 1.490896 1.251759 33.253128 -0.703166 0.387036 -3.914444 -2.509297 -0.214458 -15.84317 7.7e-05 -2.2e-05 6e-06 -0.01464 0.088141 -0.05702 0.564478 -3.574943 -10.299165 -0.593358 3.76119 -10.296087 -24.396185 -16.717751 23.552465 -42.595432 -28.792789 26.200426 0.429335 -31.100122 -0.03083 -0.886909 2.26963 -4.875444 -5.882114 9.861296 0.702589 -10.936885 -0.360575 7.156211 0.0 8.774835 -2e-06 -16.487247 18.276413 5.771421 -1.844036 2.498507 -2.50728 -10.163612 4.678948 4.62111 -20.976053 -5e-06 1e-06 -21.226318 2.451696 -3.594006 1e-06 -5e-06 -0.0 -1.362684 2.240799 -0.746324 -21.33494 0.584909 3.008322 -13.821232 -4e-06 -0.0 -23.887203 -0.249082 -0.839486 -59.945183 2.493681 -2.04636 -0.294025 1.679688 0.833257 -14.218228 0.093214 1.300579 -34.212097 -0.287567 0.967167 -20.033241 0.964532 1.212844 1e-06 -0.0 1e-06 -3.440392 0.788234 0.501655 -15.928206 -3.167313 2.999705 -6.338834 -1e-06 -1e-06 -18.12347 3.648184 -4.905679 -3e-06 -1e-06 -2e-06 13.174711 17.973059 22.733578 51.57209 22.097599 20.751829 0.208872 34.6124 0.571608 0.130297 1.648401 2.570507 2.243545 -5.255042 -3.18016 14.282907 -0.826597 6.952508 -1e-06 -12.690618 -1e-06 16.30995 -18.250376 2.846773 1.665668 -1.955924 -2.8783 4.727804 -4.170592 4.993929 11.020538 3e-06 -3e-06 12.109064 -3.73572 -2.866786 2e-06 -0.0 0.0 1.291987 -1.92855 -1.498089 14.800142 0.567467 3.86561 14.242586 -1.341737 -6.660665 19.63199 0.143927 -0.648247 51.122601 -0.996472 -6.368441 0.35303 -1.511152 -0.031938 20.222815 3.684312 2.316632 18.787294 4e-06 -5e-06 10.751638 -0.479869 1.397906 2e-06 0.0 -2e-06 3.273811 0.305948 -0.58011 21.486834 11.830388 2.266134 8.162936 1e-06 -1e-06 18.399099 -3.798988 -4.940582 3e-06 -0.0 -1e-06 4.851776 4.154908 -11.683036 -0.039875 0.140677 8.539806 -6.653641 0.290521 2.414577 1.655715 -1.790151 -0.827835 0.0 -0.0 2e-06 1.674767 -15.865058 -13.880287 0.083541 -0.095374 16.726658 -0.391986 2.966484 -4.450529 -1.412782 1.189855 -0.246079 -0.0 -0.0 -1e-06 
0.0 0.0 0.0 0.0 -0.0 0.0 -5.011453 99.815559 -1.899185 0.892793 -0.056518 1.139652 2.051363 -0.225215 1.9354 0.361939 -0.594439 -4.641924 1.040981 -1.990956 25.194914 1.401656 1.205519 33.189636 -0.697633 0.291971 -3.88834 -2.401482 -0.326869 -15.73171 7.7e-05 -2.3e-05 8e-06 -0.040772 0.115651 -0.046854 0.531617 -3.550359 -10.295445 -0.612844 3.79067 -10.287292 -24.468824 -16.749212 23.577734 -42.602261 -29.025944 26.073776 0.321017 -31.105461 -0.038849 -0.82296 2.189187 -4.521791 -5.88211 9.861292 0.702591 -10.93688 -0.360577 7.156206 2e-06 8.774831 -2e-06 -16.421362 18.225868 5.765892 -1.844035 2.498506 -2.507277 -10.16361 4.678948 4.621107 -20.97604 -5e-06 3e-06 -21.226303 2.451697 -3.594002 0.0 -5e-06 0.0 -1.362683 2.240799 -0.746322 -21.33493 0.584906 3.008321 -13.821222 -3e-06 4e-06 -23.88719 -0.249082 -0.839483 -59.839638 2.452266 -2.028483 -0.294025 1.679688 0.833256 -14.218221 0.093213 1.300579 -34.212078 -0.28757 0.96717 -20.03323 0.964533 1.212844 0.0 0.0 -0.0 -3.440391 0.788234 0.501656 -15.928201 -3.167313 2.999707 -6.33883 -2e-06 1e-06 -18.123461 3.648182 -4.905674 -3e-06 -1e-06 -3e-06 13.2613 18.031992 22.85861 51.298565 22.165928 21.000103 0.232046 34.257862 0.554342 0.358263 1.668575 2.273602 2.243543 -5.255039 -3.180158 14.2829 -0.826594 6.952504 -4e-06 -12.690615 2e-06 16.158255 -18.176359 2.89501 1.665668 -1.955922 -2.878301 4.727801 -4.17059 4.993926 11.020535 5e-06 -5e-06 12.109061 -3.735716 -2.866788 2e-06 -0.0 0.0 1.291986 -1.92855 -1.498089 14.800138 0.567471 3.865606 14.242582 -1.341735 -6.660662 19.631985 0.143929 -0.648244 51.050373 -1.005895 -6.336164 0.35303 -1.511151 -0.03194 20.222805 3.684314 2.316629 18.787289 7e-06 -3e-06 10.751637 -0.479865 1.397905 -1e-06 1e-06 -1e-06 3.273809 0.305947 -0.580113 21.486832 11.83039 2.266131 8.162933 3e-06 -2e-06 18.399096 -3.798985 -4.94058 3e-06 0.0 -3e-06 4.830617 3.891286 -11.709293 -0.06545 0.127476 8.326671 -6.662828 0.099265 2.547702 1.655641 -1.79331 -0.791761 0.0 -0.0 2e-06 1.660271 -16.076389 -13.844282 0.076676 -0.098952 16.633526 -0.332198 2.781533 -4.482982 -1.419903 1.179322 -0.234173 -0.0 -0.0 -1e-06 
0.0 0.0 0.0 0.0 -0.0 0.0 -5.014822 99.82312 -1.839383 0.908245 0.370734 1.209885 2.044056 -0.200026 1.981401 0.381423 -0.515845 -4.61651 1.078018 -1.864837 25.246485 1.308485 1.172441 33.235634 -0.691259 0.202448 -3.880674 -2.330099 -0.426395 -15.661373 7.7e-05 -2.2e-05 6e-06 -0.047573 0.119659 -0.038807 0.51975 -3.548939 -10.309259 -0.614462 3.795789 -10.293126 -24.523691 -16.695196 23.569706 -42.607246 -29.311741 26.022446 0.236389 -31.206982 -0.038523 -0.8249 2.140159 -4.306502 -5.882113 9.861293 0.702589 -10.936881 -0.360573 7.156209 0.0 8.774833 1e-06 -16.430573 18.245031 5.758536 -1.844035 2.498507 -2.50728 -10.16361 4.67895 4.621111 -20.976044 -1e-06 1e-06 -21.226309 2.4517 -3.594006 1e-06 -3e-06 -0.0 -1.362683 2.240799 -0.746323 -21.334934 0.584911 3.008324 -13.821224 -1e-06 0.0 -23.887192 -0.249079 -0.839487 -59.778164 2.47992 -2.06421 -0.294025 1.679689 0.833258 -14.218222 0.093217 1.30058 -34.212082 -0.287563 0.967165 -20.033232 0.964537 1.21284 0.0 0.0 -0.0 -3.440392 0.788235 0.501657 -15.928201 -3.167308 2.999707 -6.338832 -0.0 2e-06 -18.123466 3.648187 -4.905677 -3e-06 -1e-06 -2e-06 13.257756 18.189699 22.931408 51.04324 22.319324 21.287401 0.282497 33.812138 0.566989 0.626956 1.595474 2.290041 2.243544 -5.25504 -3.18016 14.282901 -0.826597 6.952503 -0.0 -12.690612 2e-06 16.084957 -18.102018 2.962007 1.665668 -1.955923 -2.8783 4.727803 -4.170592 4.993926 11.020535 1e-06 -4e-06 12.10906 -3.73572 -2.866786 1e-06 0.0 -1e-06 1.291986 -1.92855 -1.498089 14.800136 0.567466 3.865608 14.242583 -1.341738 -6.660663 19.631977 0.143925 -0.648248 50.991055 -1.032302 -6.29149 0.353029 -1.511152 -0.031941 20.222803 3.684309 2.316628 18.787289 3e-06 -5e-06 10.751636 -0.479868 1.397905 -2e-06 1e-06 -0.0 3.273809 0.305946 -0.580112 21.486828 11.830379 2.266131 8.162933 -0.0 -3e-06 18.399097 -3.798988 -4.940584 6e-06 -2e-06 -3e-06 4.788803 3.633552 -11.790195 -0.070862 0.110459 8.232453 -6.643395 -0.079603 2.633019 1.655159 -1.79914 -0.739322 0.0 -0.0 2e-06 1.634574 -16.395452 -13.846371 0.076552 -0.106031 16.645851 -0.304684 2.63226 -4.569487 -1.422605 1.172533 -0.179397 -0.0 -0.0 -1e-06 
0.0 0.0 0.0 0.0 -0.0 0.0 -5.001355 99.822227 -1.792733 0.908092 0.783212 1.274481 2.045192 -0.170022 2.034208 0.401577 -0.457507 -4.589778 1.109296 -1.704448 25.302254 1.214432 1.182288 33.314705 -0.70003 0.143868 -3.875523 -2.258273 -0.509722 -15.716352 7.7e-05 -2.2e-05 6e-06 -0.045623 0.11402 -0.03435 0.516503 -3.554563 -10.316909 -0.607047 3.788593 -10.294385 -24.56522 -16.564434 23.533596 -42.609821 -29.597635 25.956001 0.163389 -31.393538 -0.014619 -0.769142 2.059755 -3.989776 -5.882109 9.861287 0.702588 -10.936873 -0.360574 7.156205 -0.0 8.774824 -2e-06 -16.435282 18.273918 5.745099 -1.844033 2.498505 -2.507279 -10.163604 4.678946 4.621108 -20.97603 -2e-06 -1e-06 -21.226294 2.451696 -3.594003 1e-06 -5e-06 -0.0 -1.362682 2.240799 -0.746323 -21.334921 0.58491 3.00832 -13.821218 -2e-06 1e-06 -23.887178 -0.249079 -0.839485 -59.733688 2.500571 -2.105379 -0.294025 1.679688 0.833257 -14.218212 0.093216 1.300579 -34.212051 -0.287564 0.967165 -20.033215 0.964534 1.21284 0.0 0.0 -1e-06 -3.44039 0.788235 0.501655 -15.928189 -3.167308 2.999707 -6.338828 -2e-06 0.0 -18.123453 3.648183 -4.905674 -2e-06 -0.0 -3e-06 13.174544 18.414457 22.980732 50.768204 22.5865 21.670193 0.316339 33.373268 0.5819 0.912076 1.447219 2.474855 2.243543 -5.255038 -3.180157 14.282896 -0.826595 6.952505 -2e-06 -12.690607 -1e-06 16.047222 -18.034182 3.040217 1.665667 -1.955921 -2.878299 4.727801 -4.170589 4.993925 11.020534 3e-06 -3e-06 12.109059 -3.735717 -2.866785 1e-06 -1e-06 -2e-06 1.291986 -1.928551 -1.49809 14.800136 0.567467 3.865609 14.24258 -1.341737 -6.66066 19.631975 0.143926 -0.648246 50.931023 -1.065342 -6.213137 0.353029 -1.511152 -0.031941 20.222801 3.684309 2.316631 18.787283 5e-06 -3e-06 10.751633 -0.479869 1.397906 -1e-06 1e-06 -1e-06 3.273808 0.305946 -0.58011 21.48682 11.830379 2.266132 8.16293 1e-06 -2e-06 18.39909 -3.798984 -4.940579 3e-06 -2e-06 -3e-06 4.747999 3.433793 -11.940064 -0.067021 0.096524 8.287765 -6.671267 -0.269651 2.648224 1.653261 -1.804693 -0.701418 0.0 -0.0 2e-06 1.614313 -16.68392 -13.872082 0.076241 -0.122039 16.699171 -0.267516 2.474764 -4.66409 -1.423157 1.161132 -0.140176 -0.0 -0.0 -1e-06 
